<svg id="Calque_1" data-name="Calque 1" xmlns="http://www.w3.org/2000/svg" viewBox="0 0 576.29 105.27"><path d="M613.68,418.86H576.07V417.2l10.56-3.33-10.28-25.66H538.47l-9.72,25.66,10.63,3.33v1.66H517.57V417.2l9.44-3.33,29-76.63-7.13-17.82h17.55l37.67,94.45,9.58,3.33Zm-38-32.32-18.74-47.08L539.1,386.54Z" transform="translate(-517.57 -314.63)" style="fill:#fff"/><path d="M652.68,418.17H617.8V416.5L627,414V350.28H616.12v-1.67H627v-9.5q0-13,6.95-18.72t20-5.76a101.68,101.68,0,0,1,13.7.83l6,.84,2.59,18.24h-1.82a28.76,28.76,0,0,0-8.49-13q-6-5.23-11.43-5.23a14,14,0,0,0-5.45,1.14,9.64,9.64,0,0,0-4.55,4.23q-1.82,3.09-1.81,8.84v18.1H661v1.67H642.69V414l10,2.49Z" transform="translate(-517.57 -314.63)" style="fill:#fff"/><path d="M705.38,418.17h-34v-1.6l9.16-2.5v-61.3l-9.16-2.49v-1.67H687.7q4.54,0,6.53,2t2,6.27v17.55l4.47-13.66q4.2-12.13,16.08-12.14h11.53v16.58H716.85a62.09,62.09,0,0,0-8.43.52A14.63,14.63,0,0,0,702,368a10.16,10.16,0,0,0-3.81,5.41l-1.95,6.45v34.18l9.15,2.5Z" transform="translate(-517.57 -314.63)" style="fill:#fff"/><path d="M770.81,418.17h-34v-1.6l9.15-2.5v-61.3l-9.15-2.49v-1.67h16.35q4.54,0,6.54,2c1.32,1.32,2,3.41,2,6.27v57.21l9.16,2.5Zm-17-77.88a9,9,0,0,1-6.53-2.63,9.05,9.05,0,0,1,0-12.9,9.32,9.32,0,0,1,13,0,9.08,9.08,0,0,1,0,12.9A9,9,0,0,1,753.82,340.29Z" transform="translate(-517.57 -314.63)" style="fill:#fff"/><path d="M899.69,418.17H865.58v-1.6l9.23-2.5v-36.4q0-11.31-3.25-17.41t-9.4-6.1q-5.8,0-10.07,5.89t-6.57,18.17v35.85l9.16,2.5v1.6h-34v-1.6l9.16-2.5v-36.4q0-11.31-3.22-17.41t-9.36-6.1q-5.81,0-10.07,5.82t-6.57,18v36.12l9.16,2.5v1.6h-34v-1.6l9.15-2.5v-61.3l-9.15-2.49v-1.67h16.35q4.55,0,6.54,2t2,6.27v12.42Q807,346.95,824.35,347a18.36,18.36,0,0,1,14.08,5.82q5.42,5.84,6.75,17.89,6.36-23.71,24.11-23.71,9.86,0,15.52,7.49t5.66,23.23v36.4l9.22,2.5Z" transform="translate(-517.57 -314.63)" style="fill:#fff"/><path d="M939.46,419.83a41.73,41.73,0,0,1-18.34-4,31.71,31.71,0,0,1-13.39-12.14q-5-8.12-5-20.25t4.4-20.31A28.31,28.31,0,0,1,919.58,351a42.1,42.1,0,0,1,19-4,41.14,41.14,0,0,1,14.74,2.43,21.75,21.75,0,0,1,9.93,7.14,18.61,18.61,0,0,1,3.56,11.58q0,9-4.12,13.87t-12.82,6.69a113.53,113.53,0,0,1-22.62,1.84h-4.47Q927,413,945.62,413a25.47,25.47,0,0,0,12.09-2.6,18,18,0,0,0,7.34-6.76l1.12.63A24.69,24.69,0,0,1,955.58,416,33,33,0,0,1,939.46,419.83Zm-12.23-31a34.13,34.13,0,0,0,12.55-1.94,13.06,13.06,0,0,0,7.16-6.76q2.31-4.81,2.31-13.56,0-8.52-3.21-13.24a10,10,0,0,0-8.67-4.72,12.46,12.46,0,0,0-9.16,3.4q-3.42,3.4-4.92,9.78a67.51,67.51,0,0,0-1.51,15.39,82.33,82.33,0,0,0,.77,11.65Z" transform="translate(-517.57 -314.63)" style="fill:#fff"/><path d="M999.72,419.83q-8.88,0-13.56-5.72t-4.69-18.69V350.28H969.8v-1.67h11.67V336.89a7,7,0,0,1,2.06-5.51,14,14,0,0,1,6.47-2.74l7.13-1.59v21.56h16.08v1.67H997.13v45.63q0,8.8,2.2,12.37a6.84,6.84,0,0,0,6.12,3.58q5.65,0,9.71-6.59l1.05.62q-1.82,6.87-5.8,10.4T999.72,419.83Z" transform="translate(-517.57 -314.63)" style="fill:#fff"/><path d="M1046.06,419.9q-10.56,0-16.71-5.13t-6.15-13.87c0-4.86.77-8.7,2.31-11.55a16.63,16.63,0,0,1,7.06-6.79,50.77,50.77,0,0,1,12.09-4.27l24.53-6.1q-.69-12.06-5.14-17.82a14.27,14.27,0,0,0-11.91-5.76q-9,0-15.87,8.18a43,43,0,0,0-8.67,17.06h-1.67l3.28-25.24,4-.41q4-.42,9.78-.84t11.25-.41a46.52,46.52,0,0,1,16,2.53,20.79,20.79,0,0,1,10.86,8.91q3.92,6.38,3.92,18v37.79l8.88,2.43v1.67h-16c-3,0-5.21-.69-6.54-2.05s-2-3.46-2-6.28V396a63.91,63.91,0,0,1-5.24,12.69,24.12,24.12,0,0,1-7.3,8.28A18.53,18.53,0,0,1,1046.06,419.9Zm4.47-7.28q12.23,0,18.8-24V374.2q-8.17,2.22-14,4Q1041,382.45,1041,397.85q0,7.35,2.28,11.06T1050.53,412.62Z" transform="translate(-517.57 -314.63)" style="fill:#fff"/></svg>